<svg xmlns="http://www.w3.org/2000/svg" width="99.889" height="128.329" viewBox="0 0 99.889 128.329">
  <g id="Groupe_574" data-name="Groupe 574" transform="translate(-484.625 -4239.055)">
    <path id="Tracé_1386" data-name="Tracé 1386" d="M571.866,4288.644c-16.365,0-30.525,21.448-37.34,58.206-2,10.789,5.944,20.8,16.466,20.8h41.748c10.522,0,18.467-10.012,16.466-20.8C602.391,4310.091,588.232,4288.644,571.866,4288.644Z" transform="translate(-25.003 -25.001)" fill="#00a9ff"/>
    <path id="Tracé_1387" data-name="Tracé 1387" d="M593.678,4358.417c11.308.109,17.775-5.907,18.014-16.758.22-9.974-6-2.564-15.294-2.575-8.475-.01-19.208-8.971-19.274,1.729C577.057,4351.823,583.162,4358.315,593.678,4358.417Z" transform="translate(-46.636 -48.655)" fill="#fff"/>
    <path id="Tracé_1388" data-name="Tracé 1388" d="M637.554,4458.414c-3.972-3.871-8.734-3.468-13.264,1.121-4.164,4.219-5.089,12.076-1.792,15.224,3.006,2.87,9.316,1.412,13.723-3.171C640.756,4466.872,641.247,4462.014,637.554,4458.414Z" transform="translate(-68.507 -109.265)" fill="#00a9ff"/>
    <path id="Tracé_1389" data-name="Tracé 1389" d="M557.4,4474.434c3.972,3.871,8.733,3.469,13.264-1.121,4.164-4.218,5.089-12.075,1.792-15.223-3.006-2.871-9.316-1.412-13.723,3.171C554.195,4465.976,553.7,4470.834,557.4,4474.434Z" transform="translate(-35.451 -109.687)" fill="#00a9ff"/>
    <path id="Tracé_1390" data-name="Tracé 1390" d="M562.722,4390.735a1.624,1.624,0,0,0,.036-.422c.058-.056.111-.12.163-.171-.007-.01-.011-.02-.018-.031a1.14,1.14,0,0,0,.292-.261c-.443-.62-.2-1.212-.65-1.83a1.094,1.094,0,0,0,.118-1,1.129,1.129,0,0,0-.059-1.476,2.052,2.052,0,0,0-1.154.31c.031-.037.062-.072.095-.106a.26.26,0,0,0,.038.026,1.2,1.2,0,0,1,.237-.318.267.267,0,0,0,.038.027,1.2,1.2,0,0,1,.236-.319.23.23,0,0,0,.038.027c.186-.4.669-.542.591-1.063a1.016,1.016,0,0,0-1.24-.708,3.02,3.02,0,0,0-1.454.8l-11.608,12.347a3.538,3.538,0,0,1,.177,1.417.8.8,0,0,0,.615.226.425.425,0,0,0-.029.057.594.594,0,0,0-.275.292.53.53,0,0,0-.312.489c-.046.12.24.247.236.412-.006.318-.033.146.178.414.037.048-.04.192,0,.236.085.1.183.02.294.178.171.241.212.678.649.767a1.461,1.461,0,0,0-.243.353c-.018,0-.037.009-.055.012a.6.6,0,0,1,.017.076c-.016.042-.03.088-.044.136a.885.885,0,0,1-.247.08.712.712,0,0,1,.041.182,1.048,1.048,0,0,1-.315.11.749.749,0,0,1,.041.182,1.061,1.061,0,0,1-.315.11c.1.271,0,.4,0,.709a2.2,2.2,0,0,1,1.122.649c.51,0,.756-.464,1.24-.649Z" transform="translate(-32.164 -72.76)" fill="#ff1400" fill-rule="evenodd"/>
    <path id="Tracé_1391" data-name="Tracé 1391" d="M569.732,4402.206a1.628,1.628,0,0,0,.036-.423c.058-.055.111-.12.163-.171-.007-.01-.011-.02-.018-.03a1.152,1.152,0,0,0,.292-.262c-.443-.62-.2-1.213-.65-1.83a1.1,1.1,0,0,0,.118-1,1.131,1.131,0,0,0-.059-1.477,2.052,2.052,0,0,0-1.154.311c.031-.037.062-.073.095-.107a.238.238,0,0,0,.038.027,1.187,1.187,0,0,1,.237-.318.236.236,0,0,0,.038.026,1.215,1.215,0,0,1,.237-.319.256.256,0,0,0,.038.027c.186-.4.669-.542.59-1.063a1.016,1.016,0,0,0-1.24-.708,3.024,3.024,0,0,0-1.454.8l-11.608,12.347a3.545,3.545,0,0,1,.177,1.417.8.8,0,0,0,.615.226.407.407,0,0,0-.029.056.6.6,0,0,0-.274.292.53.53,0,0,0-.312.489c-.046.12.24.247.236.412-.006.318-.033.146.178.415.037.047-.04.191,0,.235.085.1.183.021.294.179.171.241.212.678.649.767a1.46,1.46,0,0,0-.243.352.455.455,0,0,1-.055.012.612.612,0,0,1,.017.076c-.016.042-.03.088-.044.137a.9.9,0,0,1-.247.079.72.72,0,0,1,.041.182,1.063,1.063,0,0,1-.315.109.752.752,0,0,1,.041.182,1.07,1.07,0,0,1-.315.111c.095.27,0,.4,0,.708a2.208,2.208,0,0,1,1.121.649c.51,0,.755-.464,1.24-.649Z" transform="translate(-35.698 -78.543)" fill="#fff" fill-rule="evenodd"/>
    <path id="Tracé_1392" data-name="Tracé 1392" d="M641.837,4390.735a1.627,1.627,0,0,1-.036-.422c-.058-.056-.111-.12-.163-.171.008-.01.011-.02.018-.031a1.14,1.14,0,0,1-.292-.261c.443-.62.2-1.212.65-1.83a1.094,1.094,0,0,1-.118-1,1.13,1.13,0,0,1,.059-1.476,2.052,2.052,0,0,1,1.154.31c-.031-.037-.062-.072-.095-.106a.253.253,0,0,1-.038.026,1.2,1.2,0,0,0-.237-.318.278.278,0,0,1-.038.027,1.2,1.2,0,0,0-.237-.319.229.229,0,0,1-.038.027c-.186-.4-.669-.542-.591-1.063a1.016,1.016,0,0,1,1.24-.708,3.02,3.02,0,0,1,1.454.8l11.608,12.347a3.541,3.541,0,0,0-.177,1.417.8.8,0,0,1-.615.226.448.448,0,0,1,.029.057.6.6,0,0,1,.275.292.53.53,0,0,1,.312.489c.046.12-.24.247-.236.412.006.318.033.146-.178.414-.037.048.04.192,0,.236-.085.1-.183.02-.294.178-.171.241-.212.678-.65.767a1.461,1.461,0,0,1,.243.353c.018,0,.037.009.055.012a.617.617,0,0,0-.017.076c.016.042.03.088.044.136a.885.885,0,0,0,.247.08.713.713,0,0,0-.041.182,1.05,1.05,0,0,0,.315.11.749.749,0,0,0-.041.182,1.06,1.06,0,0,0,.315.11c-.095.271,0,.4,0,.709a2.2,2.2,0,0,0-1.122.649c-.51,0-.756-.464-1.24-.649Z" transform="translate(-79.024 -72.76)" fill="#ff1400" fill-rule="evenodd"/>
    <path id="Tracé_1393" data-name="Tracé 1393" d="M634.827,4402.206a1.628,1.628,0,0,1-.036-.423c-.058-.055-.111-.12-.163-.171.008-.01.011-.02.018-.03a1.152,1.152,0,0,1-.292-.262c.443-.62.2-1.213.65-1.83a1.1,1.1,0,0,1-.118-1,1.13,1.13,0,0,1,.059-1.477,2.052,2.052,0,0,1,1.154.311c-.031-.037-.062-.073-.095-.107a.238.238,0,0,1-.038.027,1.189,1.189,0,0,0-.237-.318.235.235,0,0,1-.038.026,1.2,1.2,0,0,0-.237-.319.258.258,0,0,1-.038.027c-.186-.4-.669-.542-.591-1.063a1.016,1.016,0,0,1,1.24-.708,3.023,3.023,0,0,1,1.454.8l11.608,12.347a3.549,3.549,0,0,0-.177,1.417.8.8,0,0,1-.615.226.4.4,0,0,1,.029.056.6.6,0,0,1,.274.292.53.53,0,0,1,.312.489c.046.12-.24.247-.236.412.006.318.033.146-.178.415-.037.047.04.191,0,.235-.085.1-.184.021-.294.179-.171.241-.212.678-.65.767a1.459,1.459,0,0,1,.243.352.451.451,0,0,0,.055.012.634.634,0,0,0-.017.076c.016.042.031.088.044.137a.9.9,0,0,0,.247.079.747.747,0,0,0-.041.182,1.062,1.062,0,0,0,.315.109.752.752,0,0,0-.041.182,1.07,1.07,0,0,0,.315.111c-.095.27,0,.4,0,.708a2.207,2.207,0,0,0-1.121.649c-.51,0-.755-.464-1.24-.649Z" transform="translate(-75.489 -78.543)" fill="#fff" fill-rule="evenodd"/>
    <path id="Tracé_1394" data-name="Tracé 1394" d="M613.428,4323.735a9.061,9.061,0,0,1,8.935,8.684c.1,4.829-3.707,8.547-8.784,8.588a8.97,8.97,0,0,1-9-8.514C604.525,4327.958,608.8,4323.721,613.428,4323.735Z" transform="translate(-60.478 -42.693)" fill="#00a9ff"/>
    <ellipse id="Ellipse_54" data-name="Ellipse 54" cx="19.081" cy="5.91" rx="19.081" ry="5.91" transform="matrix(0.852, -0.524, 0.524, 0.852, 484.625, 4292.566)" fill="#00a9ff"/>
    <ellipse id="Ellipse_55" data-name="Ellipse 55" cx="7.183" cy="16.49" rx="7.183" ry="16.49" transform="matrix(0.987, -0.158, 0.158, 0.987, 512.084, 4241.326)" fill="#00a9ff"/>
    <ellipse id="Ellipse_56" data-name="Ellipse 56" cx="7.183" cy="20.751" rx="7.183" ry="20.751" transform="matrix(0.658, -0.753, 0.753, 0.658, 488.379, 4250.841)" fill="#ff1400"/>
  </g>
</svg>
