<svg xmlns="http://www.w3.org/2000/svg" width="97.46" height="125.208" viewBox="0 0 97.46 125.208">
  <g id="Groupe_576" data-name="Groupe 576" transform="translate(-723.389 -4238.216)">
    <path id="Tracé_1395" data-name="Tracé 1395" d="M809.715,4287.805c-15.967,0-29.783,20.925-36.432,56.79-1.952,10.526,5.8,20.3,16.066,20.3h40.733c10.266,0,18.018-9.77,16.066-20.3C839.5,4308.73,825.682,4287.805,809.715,4287.805Z" transform="translate(-25.601 -25.6)" fill="#00a9ff"/>
    <path id="Tracé_1396" data-name="Tracé 1396" d="M828.532,4330.08c11.033.138,17.343,15.045,17.576,1.356.214-12.582-9.232-26.017-18.3-26.03-8.269-.013-18.649,13.121-18.713,26.62C809.027,4345.914,818.271,4329.951,828.532,4330.08Z" transform="translate(-44.243 -34.686)" fill="#fff"/>
    <path id="Tracé_1397" data-name="Tracé 1397" d="M875.9,4457.511c-3.875-3.776-8.521-3.384-12.942,1.094-4.063,4.115-4.965,11.781-1.748,14.854,2.933,2.8,9.089,1.377,13.389-3.094C879.027,4465.763,879.507,4461.023,875.9,4457.511Z" transform="translate(-70.145 -111.879)" fill="#00a9ff"/>
    <path id="Tracé_1398" data-name="Tracé 1398" d="M796.1,4473.162c3.875,3.776,8.521,3.384,12.942-1.094,4.063-4.116,4.965-11.781,1.748-14.853-2.933-2.8-9.089-1.379-13.389,3.093C792.977,4464.909,792.5,4469.65,796.1,4473.162Z" transform="translate(-36.299 -112.312)" fill="#00a9ff"/>
    <path id="Tracé_1399" data-name="Tracé 1399" d="M801.138,4389.717a1.583,1.583,0,0,0,.034-.412c.057-.054.108-.117.159-.167-.007-.01-.011-.02-.017-.03a1.153,1.153,0,0,0,.285-.255c-.432-.605-.2-1.184-.634-1.786a1.067,1.067,0,0,0,.115-.979,1.1,1.1,0,0,0-.057-1.44,2,2,0,0,0-1.126.3c.03-.035.06-.071.092-.1a.18.18,0,0,0,.037.026,1.179,1.179,0,0,1,.231-.311c.013.008.022.02.037.025a1.177,1.177,0,0,1,.231-.31.176.176,0,0,0,.037.025c.181-.388.653-.528.576-1.037a.991.991,0,0,0-1.21-.69,2.955,2.955,0,0,0-1.419.781L787.184,4395.4a3.453,3.453,0,0,1,.173,1.382.776.776,0,0,0,.6.221.447.447,0,0,0-.028.056.573.573,0,0,0-.268.284.518.518,0,0,0-.3.477c-.044.118.234.242.23.4-.007.309-.032.142.173.4.036.047-.039.187,0,.23.083.095.179.019.287.173.167.235.208.662.634.749a1.431,1.431,0,0,0-.237.343.432.432,0,0,1-.053.011.728.728,0,0,1,.016.075c-.016.041-.03.085-.043.133a.866.866,0,0,1-.241.077.728.728,0,0,1,.04.177,1.028,1.028,0,0,1-.307.108.713.713,0,0,1,.039.177,1.029,1.029,0,0,1-.307.108c.092.264,0,.391,0,.691a2.147,2.147,0,0,1,1.094.633c.5,0,.737-.452,1.21-.633Z" transform="translate(-32.933 -74.501)" fill="#ff1400" fill-rule="evenodd"/>
    <path id="Tracé_1400" data-name="Tracé 1400" d="M808.148,4401.188a1.612,1.612,0,0,0,.034-.412c.057-.054.108-.116.159-.167-.007-.01-.011-.02-.017-.03a1.143,1.143,0,0,0,.285-.255c-.432-.6-.2-1.183-.634-1.786a1.067,1.067,0,0,0,.115-.979,1.1,1.1,0,0,0-.057-1.44,2,2,0,0,0-1.126.3c.03-.035.06-.07.093-.1a.213.213,0,0,0,.036.025,1.171,1.171,0,0,1,.231-.311.176.176,0,0,0,.037.025,1.17,1.17,0,0,1,.231-.311.2.2,0,0,0,.037.026c.181-.389.653-.529.576-1.037a.992.992,0,0,0-1.21-.691,2.955,2.955,0,0,0-1.418.782l-11.325,12.047a3.451,3.451,0,0,1,.173,1.382.776.776,0,0,0,.6.221.44.44,0,0,0-.028.056.572.572,0,0,0-.268.285.516.516,0,0,0-.3.477c-.045.117.234.241.23.4-.007.31-.032.142.173.4.036.047-.039.187,0,.23.083.1.179.019.287.173.167.235.208.662.634.749a1.422,1.422,0,0,0-.237.343.352.352,0,0,1-.054.011.652.652,0,0,1,.017.075c-.015.041-.03.085-.044.134a.874.874,0,0,1-.241.077.723.723,0,0,1,.04.178,1.043,1.043,0,0,1-.308.107.725.725,0,0,1,.04.177,1.03,1.03,0,0,1-.307.108c.092.264,0,.391,0,.691a2.151,2.151,0,0,1,1.094.633c.5,0,.737-.452,1.21-.633Z" transform="translate(-36.552 -80.422)" fill="#fff" fill-rule="evenodd"/>
    <path id="Tracé_1401" data-name="Tracé 1401" d="M880.589,4389.717a1.583,1.583,0,0,1-.034-.412c-.057-.054-.108-.117-.159-.167.007-.01.011-.02.017-.03a1.151,1.151,0,0,1-.285-.255c.432-.605.2-1.184.634-1.786a1.067,1.067,0,0,1-.115-.979,1.1,1.1,0,0,1,.057-1.44,2,2,0,0,1,1.126.3c-.03-.035-.06-.071-.092-.1a.182.182,0,0,1-.037.026,1.179,1.179,0,0,0-.231-.311c-.013.008-.022.02-.037.025a1.178,1.178,0,0,0-.231-.31.176.176,0,0,1-.037.025c-.182-.388-.653-.528-.576-1.037a.991.991,0,0,1,1.21-.69,2.955,2.955,0,0,1,1.419.781l11.326,12.047a3.45,3.45,0,0,0-.173,1.382.777.777,0,0,1-.6.221.465.465,0,0,1,.028.056.573.573,0,0,1,.267.284.518.518,0,0,1,.3.477c.044.118-.234.242-.23.4.007.309.032.142-.173.4-.036.047.039.187,0,.23-.083.095-.179.019-.287.173-.167.235-.208.662-.634.749a1.433,1.433,0,0,1,.237.343.429.429,0,0,0,.053.011.619.619,0,0,0-.016.075c.016.041.03.085.043.133a.867.867,0,0,0,.241.077.722.722,0,0,0-.04.177,1.028,1.028,0,0,0,.307.108.719.719,0,0,0-.039.177,1.029,1.029,0,0,0,.307.108c-.092.264,0,.391,0,.691a2.148,2.148,0,0,0-1.094.633c-.5,0-.737-.452-1.21-.633Z" transform="translate(-80.914 -74.501)" fill="#ff1400" fill-rule="evenodd"/>
    <path id="Tracé_1402" data-name="Tracé 1402" d="M873.579,4401.188a1.61,1.61,0,0,1-.034-.412c-.057-.054-.108-.116-.159-.167.007-.01.011-.02.017-.03a1.145,1.145,0,0,1-.285-.255c.432-.6.2-1.183.634-1.786a1.067,1.067,0,0,1-.115-.979,1.1,1.1,0,0,1,.057-1.44,2,2,0,0,1,1.126.3c-.031-.035-.061-.07-.093-.1a.21.21,0,0,1-.036.025,1.171,1.171,0,0,0-.231-.311.19.19,0,0,1-.037.025,1.171,1.171,0,0,0-.231-.311.2.2,0,0,1-.037.026c-.181-.389-.653-.529-.576-1.037a.992.992,0,0,1,1.21-.691,2.954,2.954,0,0,1,1.419.782l11.326,12.047a3.451,3.451,0,0,0-.173,1.382.775.775,0,0,1-.6.221.432.432,0,0,1,.028.056.572.572,0,0,1,.267.285.516.516,0,0,1,.3.477c.045.117-.234.241-.23.4.007.31.032.142-.173.4-.036.047.039.187,0,.23-.083.1-.179.019-.287.173-.167.235-.208.662-.634.749a1.422,1.422,0,0,1,.237.343.352.352,0,0,0,.054.011.666.666,0,0,0-.017.075c.016.041.03.085.044.134a.874.874,0,0,0,.241.077.723.723,0,0,0-.04.178,1.044,1.044,0,0,0,.308.107.725.725,0,0,0-.04.177,1.03,1.03,0,0,0,.307.108c-.092.264,0,.391,0,.691a2.151,2.151,0,0,0-1.094.633c-.5,0-.737-.452-1.21-.633Z" transform="translate(-77.295 -80.422)" fill="#fff" fill-rule="evenodd"/>
    <path id="Tracé_1403" data-name="Tracé 1403" d="M832.625,4335.562a8.84,8.84,0,0,1,8.718,8.473c.094,4.712-3.617,8.34-8.57,8.38a8.752,8.752,0,0,1-8.78-8.308C823.939,4339.681,828.114,4335.548,832.625,4335.562Z" transform="translate(-51.934 -50.253)" fill="#00a9ff"/>
    <ellipse id="Ellipse_57" data-name="Ellipse 57" cx="18.617" cy="5.766" rx="18.617" ry="5.766" transform="matrix(0.852, -0.524, 0.524, 0.852, 723.389, 4290.425)" fill="#00a9ff"/>
    <ellipse id="Ellipse_58" data-name="Ellipse 58" cx="7.008" cy="16.089" rx="7.008" ry="16.089" transform="matrix(0.987, -0.158, 0.158, 0.987, 750.181, 4240.432)" fill="#00a9ff"/>
    <ellipse id="Ellipse_59" data-name="Ellipse 59" cx="7.008" cy="20.246" rx="7.008" ry="20.246" transform="matrix(0.658, -0.753, 0.753, 0.658, 727.052, 4249.715)" fill="#ff1400"/>
  </g>
</svg>
