<svg id="Groupe_118" data-name="Groupe 118" xmlns="http://www.w3.org/2000/svg" width="283.624" height="235.249" viewBox="0 0 283.624 235.249">
  <g id="Groupe_114" data-name="Groupe 114" transform="translate(2.187 153.009)">
    <g id="Groupe_110" data-name="Groupe 110" transform="translate(0 31.345)">
      <g id="Groupe_108" data-name="Groupe 108" transform="translate(51.716)">
        <path id="Tracé_755" data-name="Tracé 755" d="M203.99,172.612l-3.169.1-.054-1.764a3.555,3.555,0,0,1,.317-1.924,1.256,1.256,0,0,1,1.078-.573,1.146,1.146,0,0,1,1.078.475,2.867,2.867,0,0,1,.385,1.377l3.672-.766a4.34,4.34,0,0,0-1.645-2.974,6.079,6.079,0,0,0-3.9-.943,7.127,7.127,0,0,0-3.376.823,4.622,4.622,0,0,0-1.918,1.987,5.789,5.789,0,0,0-.552,2.763l.051,1.666-1.732.053.086,2.842,1.732-.053.225,7.352-1.732.053.088,2.874,8.885-.27-.086-2.876-2.288.07-.225-7.35,3.171-.1Z" transform="translate(-194.222 -162.239)" fill="#ff1400"/>
        <path id="Tracé_756" data-name="Tracé 756" d="M211.3,169.112a5.754,5.754,0,0,0-1.311-.107,3.43,3.43,0,0,0-1.508.423,4.009,4.009,0,0,0-1.4,1.351,6.566,6.566,0,0,0-.6,1.159l-.077-2.528-6.535.2.086,2.842,1.7-.053.225,7.35-1.7.053.088,2.874,8.4-.255-.088-2.876-1.862.058-.139-4.51a1.81,1.81,0,0,1,.733-1.689,2.986,2.986,0,0,1,1.587-.539,5.459,5.459,0,0,1,1.492.15,4.845,4.845,0,0,1,1.208.453l.892-3.95A4.832,4.832,0,0,0,211.3,169.112Z" transform="translate(-189.257 -159.262)" fill="#ff1400"/>
        <path id="Tracé_757" data-name="Tracé 757" d="M220.044,171.891a6.385,6.385,0,0,0-2.622-2.324,8.87,8.87,0,0,0-7.643.233,6.372,6.372,0,0,0-2.476,2.479,6.882,6.882,0,0,0-.8,3.622,7.058,7.058,0,0,0,1.026,3.6,6.3,6.3,0,0,0,2.622,2.356,8.874,8.874,0,0,0,7.645-.233,6.316,6.316,0,0,0,2.474-2.513,7.083,7.083,0,0,0,.8-3.654A6.911,6.911,0,0,0,220.044,171.891Zm-3.757,5.461a2.45,2.45,0,0,1-.93,1.157,2.776,2.776,0,0,1-1.475.438,2.671,2.671,0,0,1-1.5-.348,2.621,2.621,0,0,1-.982-1.1,4.1,4.1,0,0,1-.4-1.738,3.987,3.987,0,0,1,.289-1.741,2.63,2.63,0,0,1,.915-1.14,2.658,2.658,0,0,1,1.475-.438,2.783,2.783,0,0,1,1.5.346,2.467,2.467,0,0,1,1,1.082,4.16,4.16,0,0,1,.381,1.721A4.277,4.277,0,0,1,216.288,177.352Z" transform="translate(-183.441 -159.428)" fill="#ff1400"/>
        <path id="Tracé_758" data-name="Tracé 758" d="M229.817,178.921l-.184-5.979a4.633,4.633,0,0,0-1.275-3.214,4.241,4.241,0,0,0-3.338-1.191,7.059,7.059,0,0,0-2.921.727,11.35,11.35,0,0,0-1.535.919l-.109-1.178-6.206.19.086,2.842,1.7-.053.225,7.352-1.7.051.086,2.876,7.972-.244-.088-2.876-1.405.043-.2-6.65c.171-.1.342-.193.515-.276a3.913,3.913,0,0,1,1.557-.391,1.581,1.581,0,0,1,1.29.5,2.282,2.282,0,0,1,.505,1.506l.158,5.194-1.371.041.088,2.876,7.9-.242-.086-2.874Z" transform="translate(-176.63 -159.673)" fill="#ff1400"/>
        <path id="Tracé_759" data-name="Tracé 759" d="M231.34,180.928a1.533,1.533,0,0,1-1.206-.355,2.046,2.046,0,0,1-.383-1.328l-.169-5.523,2.94-.09-.086-2.842-2.94.09-.156-5.064-4.843.966.13,4.247-1.6.049.088,2.844,1.632-.051.193,6.338a3.672,3.672,0,0,0,1.185,2.923,4.679,4.679,0,0,0,3.148.836l3.659-.111-.09-2.974Z" transform="translate(-168.92 -162.061)" fill="#ff1400"/>
        <path id="Tracé_760" data-name="Tracé 760" d="M241.46,178.5l-.16-5.194a5.535,5.535,0,0,0-.789-2.836,4.586,4.586,0,0,0-2.115-1.768,7.687,7.687,0,0,0-3.3-.535,14.681,14.681,0,0,0-3.289.475,16.9,16.9,0,0,0-3.233,1.227l1.165,2.744a15.462,15.462,0,0,1,2.342-.92,7.909,7.909,0,0,1,1.935-.321,2.592,2.592,0,0,1,1.865.547,2.445,2.445,0,0,1,.693,1.828l.019.629q-.375-.1-.823-.18a10.214,10.214,0,0,0-2.064-.133,8.088,8.088,0,0,0-2.519.47,4.066,4.066,0,0,0-1.888,1.351,3.616,3.616,0,0,0-.663,2.391,3.537,3.537,0,0,0,1.26,2.741,4.608,4.608,0,0,0,3.2.949,6.139,6.139,0,0,0,2.694-.672,6.839,6.839,0,0,0,1.36-.949l.413,1.157,5.553-.171-.088-2.874Zm-6.775.894a1.737,1.737,0,0,1-1.27-.385,1.556,1.556,0,0,1-.477-1.163,1.4,1.4,0,0,1,.565-1.309,2.577,2.577,0,0,1,1.377-.419,5.015,5.015,0,0,1,1.328.124c.156.038.3.081.445.128l.066,2.188a3.194,3.194,0,0,1-.672.468A3.137,3.137,0,0,1,234.684,179.4Z" transform="translate(-164.048 -159.998)" fill="#ff1400"/>
        <path id="Tracé_761" data-name="Tracé 761" d="M243.509,181.161l-.5-16.335-6.469.2.088,2.875,1.7-.052.412,13.46-1.7.052.088,2.875,8.069-.247-.088-2.875Z" transform="translate(-157.048 -162.931)" fill="#ff1400"/>
        <path id="Tracé_762" data-name="Tracé 762" d="M248.336,178.14l-.312-10.193-6.567.2.087,2.842,1.7-.052.225,7.351-1.7.052.088,2.875,8.233-.252L250,178.089Z" transform="translate(-152.729 -160.189)" fill="#ff1400"/>
        <path id="Tracé_763" data-name="Tracé 763" d="M242.707,168.554a3.192,3.192,0,0,0,4.116-.126,2.492,2.492,0,0,0,.691-1.984,2.614,2.614,0,0,0-.828-1.954,2.841,2.841,0,0,0-2.064-.672,2.89,2.89,0,0,0-2.034.8,2.861,2.861,0,0,0,.12,3.937Z" transform="translate(-152.375 -163.817)" fill="#ff1400"/>
        <path id="Tracé_764" data-name="Tracé 764" d="M256.415,177.284a6.311,6.311,0,0,1-2.209.46,4.213,4.213,0,0,1-1.908-.351,3.056,3.056,0,0,1-1.326-1.168,3.192,3.192,0,0,1-.381-.888l9.028-.276-.028-.881a7.676,7.676,0,0,0-.875-3.49,5.721,5.721,0,0,0-2.294-2.316,6.762,6.762,0,0,0-3.539-.759,7.635,7.635,0,0,0-3.68,1,6.531,6.531,0,0,0-2.459,2.495,6.882,6.882,0,0,0-.8,3.622,6.974,6.974,0,0,0,1.059,3.68,6.152,6.152,0,0,0,2.7,2.288,8.924,8.924,0,0,0,3.962.7,9.4,9.4,0,0,0,3.379-.693,8.6,8.6,0,0,0,2.6-1.647l-1.426-2.835A6.762,6.762,0,0,1,256.415,177.284Zm-4.961-6.079a2.257,2.257,0,0,1,1.36-.451,2.333,2.333,0,0,1,1.219.257,1.816,1.816,0,0,1,.759.811,3.173,3.173,0,0,1,.286,1.315l-4.606.141a4.607,4.607,0,0,1,.186-.872A2.453,2.453,0,0,1,251.454,171.206Z" transform="translate(-148.796 -160.485)" fill="#ff1400"/>
        <path id="Tracé_765" data-name="Tracé 765" d="M263.5,167.37a3.453,3.453,0,0,0-1.508.421,4.026,4.026,0,0,0-1.4,1.351,6.586,6.586,0,0,0-.6,1.161l-.077-2.528-6.535.2.088,2.842,1.7-.051.225,7.35-1.7.053.088,2.874,8.4-.257-.088-2.874-1.862.056-.139-4.508a1.812,1.812,0,0,1,.734-1.691,2.991,2.991,0,0,1,1.585-.539,5.536,5.536,0,0,1,1.491.15,4.843,4.843,0,0,1,1.208.455L266,167.88a4.909,4.909,0,0,0-1.189-.4A5.541,5.541,0,0,0,263.5,167.37Z" transform="translate(-142.258 -160.699)" fill="#ff1400"/>
        <path id="Tracé_766" data-name="Tracé 766" d="M272.578,176.579a4.182,4.182,0,0,0-.609-2.222A3.946,3.946,0,0,0,270.36,173a10.066,10.066,0,0,0-2.592-.787l-1.379-.22a4.385,4.385,0,0,1-1.191-.421.861.861,0,0,1-.449-.772.915.915,0,0,1,.432-.847,2.172,2.172,0,0,1,1.135-.312,5.217,5.217,0,0,1,1.213.109,5.013,5.013,0,0,1,1.14.374c.032.017.064.034.1.049l.192,1.349,2.842-.086-.126-4.116-3.037.092.019.642a5.5,5.5,0,0,0-1.441-.6,7.212,7.212,0,0,0-2.115-.229,5.482,5.482,0,0,0-3.513,1.2,3.675,3.675,0,0,0-1.262,3.064,3.578,3.578,0,0,0,1.078,2.665,6.957,6.957,0,0,0,3.329,1.386l1.183.192a6.2,6.2,0,0,1,1.717.52,1.044,1.044,0,0,1,.552.949.927.927,0,0,1-.432.83,2.363,2.363,0,0,1-1.266.332,5.082,5.082,0,0,1-2.07-.363,5.971,5.971,0,0,1-.919-.455l-.146-1.18-2.842.086.131,4.313,3.039-.092-.028-.917c.064.047.131.1.2.143a5.429,5.429,0,0,0,1.822.761,8.609,8.609,0,0,0,2.23.21,6.091,6.091,0,0,0,2.419-.549,3.994,3.994,0,0,0,1.689-1.441A3.912,3.912,0,0,0,272.578,176.579Z" transform="translate(-136.159 -160.825)" fill="#ff1400"/>
      </g>
      <g id="Groupe_109" data-name="Groupe 109" transform="translate(0 5.344)">
        <path id="Tracé_767" data-name="Tracé 767" d="M181.51,183.171l-.5-16.337-6.892.212.086,2.874,2.059-.062.132,4.262a5.583,5.583,0,0,0-1.084-.686,5.98,5.98,0,0,0-2.812-.518,5.86,5.86,0,0,0-3.079.928,5.648,5.648,0,0,0-2.068,2.434,7.945,7.945,0,0,0-.657,3.616,8.263,8.263,0,0,0,.879,3.637,5.744,5.744,0,0,0,2.215,2.352,5.9,5.9,0,0,0,3.2.751,6.725,6.725,0,0,0,2.953-.71,8.1,8.1,0,0,0,1.078-.686l.107.943L183.2,186l-.086-2.876Zm-6.871-.182a2.625,2.625,0,0,1-1.484-.364,2.949,2.949,0,0,1-1.031-1.1,3.558,3.558,0,0,1-.426-1.655,4.18,4.18,0,0,1,.3-1.856,2.547,2.547,0,0,1,.962-1.142,2.815,2.815,0,0,1,1.443-.419,3.24,3.24,0,0,1,1.563.327,3.587,3.587,0,0,1,.517.316l.16,5.22a4.2,4.2,0,0,1-.449.278A3.454,3.454,0,0,1,174.639,182.988Z" transform="translate(-166.69 -166.511)" fill="#00a9ff"/>
        <path id="Tracé_768" data-name="Tracé 768" d="M185.865,179.442a6.27,6.27,0,0,1-2.211.458,4.18,4.18,0,0,1-1.907-.349,3.065,3.065,0,0,1-1.328-1.17,3.156,3.156,0,0,1-.381-.887l9.028-.276-.026-.883a7.7,7.7,0,0,0-.875-3.488,5.713,5.713,0,0,0-2.3-2.316,6.74,6.74,0,0,0-3.537-.759,7.621,7.621,0,0,0-3.682,1,6.5,6.5,0,0,0-2.457,2.495,6.883,6.883,0,0,0-.806,3.622,6.985,6.985,0,0,0,1.061,3.68,6.171,6.171,0,0,0,2.7,2.288,8.959,8.959,0,0,0,3.963.7,9.45,9.45,0,0,0,3.379-.693,8.614,8.614,0,0,0,2.6-1.649l-1.428-2.833A6.8,6.8,0,0,1,185.865,179.442Zm-4.961-6.079a2.257,2.257,0,0,1,1.36-.451,2.308,2.308,0,0,1,1.217.257,1.83,1.83,0,0,1,.761.811,3.164,3.164,0,0,1,.286,1.315l-4.606.141a4.331,4.331,0,0,1,.186-.872A2.432,2.432,0,0,1,180.9,173.364Z" transform="translate(-159.055 -163.934)" fill="#00a9ff"/>
        <path id="Tracé_769" data-name="Tracé 769" d="M194.9,176.714a3.945,3.945,0,0,0-1.61-1.356,10.089,10.089,0,0,0-2.592-.787l-1.381-.22a4.369,4.369,0,0,1-1.189-.421.861.861,0,0,1-.449-.772.911.911,0,0,1,.432-.847,2.171,2.171,0,0,1,1.135-.312,5.218,5.218,0,0,1,1.213.109,5.012,5.012,0,0,1,1.14.374c.032.017.064.034.1.049l.192,1.349,2.842-.086-.126-4.116-3.037.092.019.642a5.5,5.5,0,0,0-1.441-.6,7.216,7.216,0,0,0-2.115-.229,5.478,5.478,0,0,0-3.513,1.2,3.675,3.675,0,0,0-1.262,3.064,3.578,3.578,0,0,0,1.078,2.666,6.957,6.957,0,0,0,3.329,1.386l1.183.192a6.2,6.2,0,0,1,1.717.52,1.048,1.048,0,0,1,.552.949.926.926,0,0,1-.432.83,2.363,2.363,0,0,1-1.266.332,5.122,5.122,0,0,1-2.072-.361,6.044,6.044,0,0,1-.917-.456l-.147-1.18-2.842.086.131,4.313,3.039-.092-.028-.917c.064.047.132.1.2.143a5.434,5.434,0,0,0,1.82.761,8.631,8.631,0,0,0,2.232.21,6.092,6.092,0,0,0,2.419-.548,3.993,3.993,0,0,0,1.689-1.441,3.912,3.912,0,0,0,.567-2.307A4.182,4.182,0,0,0,194.9,176.714Z" transform="translate(-152.142 -164.099)" fill="#00a9ff"/>
        <path id="Tracé_770" data-name="Tracé 770" d="M284.526,177.188l-.16-5.194a5.537,5.537,0,0,0-.789-2.836,4.575,4.575,0,0,0-2.115-1.768,7.685,7.685,0,0,0-3.3-.537,14.666,14.666,0,0,0-3.287.477,16.861,16.861,0,0,0-3.233,1.227L272.8,171.3a15.641,15.641,0,0,1,2.342-.922,7.9,7.9,0,0,1,1.937-.319,2.582,2.582,0,0,1,1.863.547,2.431,2.431,0,0,1,.693,1.828l.021.629c-.252-.068-.526-.128-.825-.18a10.216,10.216,0,0,0-2.064-.133,8.09,8.09,0,0,0-2.519.47,4.075,4.075,0,0,0-1.888,1.349,3.629,3.629,0,0,0-.663,2.391,3.545,3.545,0,0,0,1.26,2.743,4.6,4.6,0,0,0,3.2.947,6.1,6.1,0,0,0,2.694-.671,6.837,6.837,0,0,0,1.36-.949l.413,1.157,5.555-.171-.088-2.874Zm-6.776.894a1.739,1.739,0,0,1-1.27-.385,1.559,1.559,0,0,1-.477-1.163,1.4,1.4,0,0,1,.565-1.309,2.582,2.582,0,0,1,1.377-.419,5.008,5.008,0,0,1,1.328.124c.156.036.3.081.445.128l.068,2.188a3.316,3.316,0,0,1-.672.468A3.17,3.17,0,0,1,277.75,178.082Z" transform="translate(-74.5 -166.499)" fill="#00a9ff"/>
        <path id="Tracé_771" data-name="Tracé 771" d="M296.155,179.678l-.086-2.874-1.7.053-.312-10.194-6.272.192.086,2.844,1.437-.045.2,6.608a5.392,5.392,0,0,1-.5.3,3.648,3.648,0,0,1-1.6.441,1.569,1.569,0,0,1-1.307-.5,2.272,2.272,0,0,1-.486-1.473l-.248-8.1-6.5.2.086,2.842,1.634-.051.182,5.979a5.333,5.333,0,0,0,.56,2.271,3.842,3.842,0,0,0,1.538,1.621,4.659,4.659,0,0,0,2.517.545,6.912,6.912,0,0,0,2.985-.763,10.728,10.728,0,0,0,1.49-.934l.156,1.229Z" transform="translate(-68.152 -166.662)" fill="#00a9ff"/>
      </g>
    </g>
    <g id="Groupe_112" data-name="Groupe 112" transform="translate(106.924 56.648)">
      <g id="Groupe_111" data-name="Groupe 111">
        <path id="Tracé_772" data-name="Tracé 772" d="M236.2,193.019h-5.164V180.566H232.9v-3.105h-9.283v3.105h1.863v12.453h-1.863v3.334H239.89v-8.335H236.2Z" transform="translate(-223.612 -177.134)" fill="#00a9ff"/>
        <path id="Tracé_773" data-name="Tracé 773" d="M247.425,180.558h-6.276V183.4h1.437v6.61a4.97,4.97,0,0,1-.505.286,3.636,3.636,0,0,1-1.619.393,1.569,1.569,0,0,1-1.291-.539,2.277,2.277,0,0,1-.441-1.488v-8.105h-6.505V183.4h1.634v5.981a5.3,5.3,0,0,0,.492,2.288,3.853,3.853,0,0,0,1.486,1.668,4.659,4.659,0,0,0,2.5.62,6.919,6.919,0,0,0,3.007-.669,10.582,10.582,0,0,0,1.516-.89l.118,1.232h6.146v-2.876h-1.7Z" transform="translate(-216.047 -174.414)" fill="#00a9ff"/>
        <path id="Tracé_774" data-name="Tracé 774" d="M252.872,186.964l3.3-3.563h1.34v-2.844h-6.995V183.4h.981l-1.765,1.994-1.765-1.994h.981v-2.844h-6.995V183.4h1.275l3.334,3.6-3.6,3.759h-1.242v2.876h7.06v-2.876h-1.111L249.7,188.6l2.026,2.157h-1.144v2.876h7.158v-2.876H256.5Z" transform="translate(-207.701 -174.413)" fill="#00a9ff"/>
        <path id="Tracé_775" data-name="Tracé 775" d="M260.916,181.233a6.762,6.762,0,0,0-3.515-.866,7.607,7.607,0,0,0-3.71.883,6.508,6.508,0,0,0-2.532,2.418,6.892,6.892,0,0,0-.917,3.6,6.989,6.989,0,0,0,.949,3.71,6.158,6.158,0,0,0,2.632,2.371,8.92,8.92,0,0,0,3.939.817,9.46,9.46,0,0,0,3.4-.588,8.644,8.644,0,0,0,2.649-1.57l-1.341-2.876a6.681,6.681,0,0,1-1.83,1.012,6.253,6.253,0,0,1-2.222.393,4.192,4.192,0,0,1-1.9-.408,3.069,3.069,0,0,1-1.29-1.21,3.192,3.192,0,0,1-.355-.9h9.033v-.881a7.7,7.7,0,0,0-.768-3.515A5.733,5.733,0,0,0,260.916,181.233Zm-6.1,4.722a4.362,4.362,0,0,1,.212-.866,2.438,2.438,0,0,1,.832-1.176,2.259,2.259,0,0,1,1.373-.409,2.3,2.3,0,0,1,1.21.295,1.828,1.828,0,0,1,.736.832,3.2,3.2,0,0,1,.244,1.324Z" transform="translate(-200.219 -174.581)" fill="#00a9ff"/>
        <path id="Tracé_776" data-name="Tracé 776" d="M281.951,184.928a4.646,4.646,0,0,0-1.176-3.253,4.245,4.245,0,0,0-3.3-1.29,7.013,7.013,0,0,0-2.957.637,11.839,11.839,0,0,0-2.192,1.326,4.409,4.409,0,0,0-.457-.639,4.115,4.115,0,0,0-3.317-1.324,7.051,7.051,0,0,0-2.942.637,11.613,11.613,0,0,0-1.561.87l-.073-1.18H257.8v2.844h1.668v7.354h-1.7v2.876h7.976v-2.876h-1.407v-6.663c.173-.09.346-.175.524-.25a3.968,3.968,0,0,1,1.537-.344,1.625,1.625,0,0,1,1.307.539,2.286,2.286,0,0,1,.457,1.52v5.2h-1.405v2.876h7.91v-2.876H273V184.96c0-.18-.009-.355-.024-.528a6.14,6.14,0,0,1,.857-.453,3.86,3.86,0,0,1,1.52-.327,1.638,1.638,0,0,1,1.292.539,2.231,2.231,0,0,1,.473,1.52v5.2h-1.405v2.876h7.91v-2.876h-1.668Z" transform="translate(-193.612 -174.566)" fill="#00a9ff"/>
        <path id="Tracé_777" data-name="Tracé 777" d="M285.66,183.939a5.723,5.723,0,0,0-3.12-.834,5.948,5.948,0,0,0-3.988,1.418v-7.236h-6.537v2.876h1.7v13.466h-1.7v2.876h6.176l.084-.952a7.806,7.806,0,0,0,1.059.642,6.509,6.509,0,0,0,2.944.637,5.685,5.685,0,0,0,5.344-3.3,8.41,8.41,0,0,0,.766-3.727,8.248,8.248,0,0,0-.7-3.53A5.381,5.381,0,0,0,285.66,183.939Zm-3.039,8.417a2.571,2.571,0,0,1-2.042.881,3.348,3.348,0,0,1-1.553-.359,4.67,4.67,0,0,1-.473-.28v-5.151a3.284,3.284,0,0,1,.522-.355,3.1,3.1,0,0,1,1.5-.393,2.661,2.661,0,0,1,2.027.834,3.429,3.429,0,0,1,.783,2.434A3.511,3.511,0,0,1,282.621,192.356Z" transform="translate(-181.094 -177.287)" fill="#00a9ff"/>
        <path id="Tracé_778" data-name="Tracé 778" d="M292.141,181.233a8.878,8.878,0,0,0-7.649,0,6.365,6.365,0,0,0-2.549,2.4,6.887,6.887,0,0,0-.917,3.6,7.062,7.062,0,0,0,.917,3.627,6.307,6.307,0,0,0,2.549,2.436,8.878,8.878,0,0,0,7.649,0,6.319,6.319,0,0,0,2.549-2.436,7.061,7.061,0,0,0,.915-3.627,6.886,6.886,0,0,0-.915-3.6A6.376,6.376,0,0,0,292.141,181.233Zm-1.373,7.747a2.445,2.445,0,0,1-.966,1.127,2.78,2.78,0,0,1-1.486.393,2.684,2.684,0,0,1-1.488-.393,2.623,2.623,0,0,1-.949-1.127,4.126,4.126,0,0,1-.342-1.749,4.011,4.011,0,0,1,.342-1.732,2.646,2.646,0,0,1,.949-1.112,2.684,2.684,0,0,1,1.488-.393,2.78,2.78,0,0,1,1.486.393,2.463,2.463,0,0,1,.966,1.112,4.16,4.16,0,0,1,.327,1.732A4.279,4.279,0,0,1,290.767,188.98Z" transform="translate(-173.178 -174.581)" fill="#00a9ff"/>
        <path id="Tracé_779" data-name="Tracé 779" d="M303.959,180.558h-6.276V183.4h1.439v6.61a5.208,5.208,0,0,1-.507.286,3.622,3.622,0,0,1-1.617.393,1.564,1.564,0,0,1-1.29-.539,2.277,2.277,0,0,1-.441-1.488v-8.105h-6.505V183.4H290.4v5.981a5.32,5.32,0,0,0,.49,2.288,3.858,3.858,0,0,0,1.488,1.668,4.651,4.651,0,0,0,2.5.62,6.925,6.925,0,0,0,3.007-.669,10.585,10.585,0,0,0,1.516-.89l.118,1.232h6.144v-2.876h-1.7Z" transform="translate(-166.384 -174.414)" fill="#00a9ff"/>
        <path id="Tracé_780" data-name="Tracé 780" d="M309.754,180.549a5.691,5.691,0,0,0-1.307-.148,3.418,3.418,0,0,0-1.52.378,3.98,3.98,0,0,0-1.439,1.307,6.384,6.384,0,0,0-.637,1.14V180.7h-6.537v2.844h1.7v7.354h-1.7v2.876h8.4v-2.876h-1.863v-4.51a1.812,1.812,0,0,1,.783-1.668,2.994,2.994,0,0,1,1.6-.49,5.493,5.493,0,0,1,1.488.2,4.777,4.777,0,0,1,1.193.49l1.013-3.922A4.872,4.872,0,0,0,309.754,180.549Z" transform="translate(-157.992 -174.552)" fill="#00a9ff"/>
        <path id="Tracé_781" data-name="Tracé 781" d="M315.063,180.711l-.019,1.24a6.517,6.517,0,0,0-1.208-.879,5.427,5.427,0,0,0-2.761-.688,6.225,6.225,0,0,0-3.317.851,5.623,5.623,0,0,0-2.141,2.386,8.162,8.162,0,0,0-.751,3.627,8.056,8.056,0,0,0,.751,3.612,5.524,5.524,0,0,0,2.156,2.354,6.418,6.418,0,0,0,3.334.834,5.96,5.96,0,0,0,2.746-.573,6.307,6.307,0,0,0,.949-.61v.888a3.135,3.135,0,0,1-.817,2.337,3.329,3.329,0,0,1-2.419.8,10.812,10.812,0,0,1-1.929-.178,20.309,20.309,0,0,1-2.254-.573l-.785,2.975a28.862,28.862,0,0,0,2.861.751,14.777,14.777,0,0,0,2.99.293,8.634,8.634,0,0,0,3.824-.783,5.64,5.64,0,0,0,2.483-2.354,7.919,7.919,0,0,0,.883-3.922v-9.544h1.6v-2.844Zm-2.354,9.871a2.611,2.611,0,0,1-1.471-.408,2.915,2.915,0,0,1-1-1.144,3.812,3.812,0,0,1-.376-1.749,4.489,4.489,0,0,1,.361-1.912,2.532,2.532,0,0,1,.981-1.144,2.706,2.706,0,0,1,1.437-.376,3.388,3.388,0,0,1,1.553.391,4.514,4.514,0,0,1,.577.357l.023,5.395a4.306,4.306,0,0,1-.47.246A3.914,3.914,0,0,1,312.709,190.582Z" transform="translate(-152.238 -174.566)" fill="#00a9ff"/>
      </g>
      <path id="Tracé_782" data-name="Tracé 782" d="M314.2,189.413v-4.052h4.347v4.052Z" transform="translate(-144.036 -170.195)" fill="#00a9ff"/>
    </g>
    <g id="Groupe_113" data-name="Groupe 113" transform="translate(73.854)">
      <path id="Tracé_783" data-name="Tracé 783" d="M219.127,163l.262,4.994-5.157.27-.652-12.436,1.861-.1-.163-3.1-9.27.486.162,3.1,1.861-.1.652,12.436-1.861.1.174,3.329,16.255-.852-.436-8.324Z" transform="translate(-206.007 -142.303)" fill="#00a9ff"/>
      <path id="Tracé_784" data-name="Tracé 784" d="M228.777,165.323l-.272-5.19a5.549,5.549,0,0,0-.851-2.82,4.566,4.566,0,0,0-2.153-1.719,7.689,7.689,0,0,0-3.314-.466,14.733,14.733,0,0,0-3.276.549,16.9,16.9,0,0,0-3.206,1.3l1.223,2.718a15.47,15.47,0,0,1,2.322-.973,7.9,7.9,0,0,1,1.929-.363,2.577,2.577,0,0,1,1.877.507,2.433,2.433,0,0,1,.733,1.811l.034.629c-.254-.062-.528-.116-.828-.163a10.239,10.239,0,0,0-2.066-.086,7.976,7.976,0,0,0-2.51.524,4.073,4.073,0,0,0-1.858,1.39,3.626,3.626,0,0,0-.61,2.4,3.533,3.533,0,0,0,1.32,2.712,4.6,4.6,0,0,0,3.222.879,6.123,6.123,0,0,0,2.679-.729,6.982,6.982,0,0,0,1.339-.979l.436,1.148,5.549-.291-.15-2.872Zm-6.753,1.043a1.746,1.746,0,0,1-1.279-.359,1.557,1.557,0,0,1-.5-1.151,1.4,1.4,0,0,1,.535-1.322,2.577,2.577,0,0,1,1.367-.447,5,5,0,0,1,1.332.094c.156.034.3.073.447.118l.115,2.187a3.293,3.293,0,0,1-.661.483A3.193,3.193,0,0,1,222.024,166.366Z" transform="translate(-197.488 -140.117)" fill="#00a9ff"/>
      <path id="Tracé_785" data-name="Tracé 785" d="M243.537,154.412l-6.171.323.047,1.24a6.428,6.428,0,0,0-1.251-.817,5.45,5.45,0,0,0-2.8-.541,6.259,6.259,0,0,0-3.268,1.022,5.63,5.63,0,0,0-2.014,2.5,8.158,8.158,0,0,0-.56,3.661,8.065,8.065,0,0,0,.939,3.569,5.524,5.524,0,0,0,2.279,2.237,6.414,6.414,0,0,0,3.372.657,5.981,5.981,0,0,0,2.712-.716,6.347,6.347,0,0,0,.915-.659l.047.888a3.131,3.131,0,0,1-.7,2.376,3.321,3.321,0,0,1-2.372.926,10.864,10.864,0,0,1-1.935-.079,20.488,20.488,0,0,1-2.282-.453l-.629,3.011a28.781,28.781,0,0,0,2.9.6,14.726,14.726,0,0,0,3,.137,8.6,8.6,0,0,0,3.778-.984,5.614,5.614,0,0,0,2.357-2.48,7.9,7.9,0,0,0,.676-3.963l-.5-9.531,1.6-.083Zm-8,10.3a2.612,2.612,0,0,1-1.49-.331,2.931,2.931,0,0,1-1.056-1.089,3.8,3.8,0,0,1-.468-1.728,4.512,4.512,0,0,1,.259-1.927,2.559,2.559,0,0,1,.92-1.195,2.746,2.746,0,0,1,1.416-.451,3.387,3.387,0,0,1,1.57.312,4.087,4.087,0,0,1,.6.325l.3,5.387a4.453,4.453,0,0,1-.455.27A3.93,3.93,0,0,1,235.533,164.715Z" transform="translate(-187.119 -140.733)" fill="#00a9ff"/>
      <path id="Tracé_786" data-name="Tracé 786" d="M246.7,153.948a3.439,3.439,0,0,0-1.5.455,4,4,0,0,0-1.369,1.381,6.636,6.636,0,0,0-.577,1.174l-.132-2.528-6.529.344.15,2.838,1.7-.088.385,7.345-1.7.088.15,2.872,8.389-.44-.152-2.872-1.86.1-.237-4.5a1.809,1.809,0,0,1,.7-1.706,2.99,2.99,0,0,1,1.574-.573,5.437,5.437,0,0,1,1.5.118,4.874,4.874,0,0,1,1.217.426l.806-3.969a4.871,4.871,0,0,0-1.2-.379A5.591,5.591,0,0,0,246.7,153.948Z" transform="translate(-179.136 -141.149)" fill="#00a9ff"/>
      <path id="Tracé_787" data-name="Tracé 787" d="M256.667,163.862l-.272-5.19a5.526,5.526,0,0,0-.853-2.82,4.573,4.573,0,0,0-2.151-1.721,7.67,7.67,0,0,0-3.314-.464,14.639,14.639,0,0,0-3.278.549,16.753,16.753,0,0,0-3.2,1.3l1.223,2.718a15.591,15.591,0,0,1,2.322-.973,7.979,7.979,0,0,1,1.927-.363,2.592,2.592,0,0,1,1.877.507,2.437,2.437,0,0,1,.733,1.811l.034.631c-.252-.064-.528-.118-.826-.163a10.11,10.11,0,0,0-2.066-.088,8.06,8.06,0,0,0-2.51.524,4.069,4.069,0,0,0-1.86,1.39,3.619,3.619,0,0,0-.609,2.4,3.536,3.536,0,0,0,1.319,2.714,4.59,4.59,0,0,0,3.221.877,6.1,6.1,0,0,0,2.679-.729,6.924,6.924,0,0,0,1.339-.979l.438,1.148,5.549-.291-.15-2.872Zm-6.755,1.041a1.743,1.743,0,0,1-1.279-.359,1.555,1.555,0,0,1-.5-1.152,1.4,1.4,0,0,1,.537-1.321,2.574,2.574,0,0,1,1.367-.449,5.152,5.152,0,0,1,1.33.094c.158.034.3.075.447.118l.115,2.186a3.243,3.243,0,0,1-.661.483A3.16,3.16,0,0,1,249.912,164.9Z" transform="translate(-172.989 -141.4)" fill="#00a9ff"/>
      <path id="Tracé_788" data-name="Tracé 788" d="M267.419,163.4l-.314-5.973a4.64,4.64,0,0,0-1.345-3.186,4.241,4.241,0,0,0-3.364-1.116,7.029,7.029,0,0,0-2.9.791,11.314,11.314,0,0,0-1.514.95l-.133-1.176-6.2.325.148,2.84,1.7-.088.385,7.343-1.7.09.15,2.872,7.965-.417-.15-2.872-1.4.073-.349-6.646c.169-.1.338-.2.509-.285a3.882,3.882,0,0,1,1.55-.425,1.584,1.584,0,0,1,1.3.471,2.283,2.283,0,0,1,.535,1.493l.272,5.19-1.371.071.15,2.874,7.9-.415-.152-2.872Z" transform="translate(-165.92 -141.873)" fill="#00a9ff"/>
      <path id="Tracé_789" data-name="Tracé 789" d="M275.717,165.766l-.855-16.32-6.888.361.152,2.872,2.055-.109.224,4.26a5.44,5.44,0,0,0-1.1-.661,5.978,5.978,0,0,0-2.821-.458,5.863,5.863,0,0,0-3.058,1,5.646,5.646,0,0,0-2.014,2.478,7.945,7.945,0,0,0-.579,3.631,8.251,8.251,0,0,0,.958,3.616,5.728,5.728,0,0,0,2.265,2.3,5.9,5.9,0,0,0,3.21.682,6.7,6.7,0,0,0,2.938-.776,7.745,7.745,0,0,0,1.063-.708l.128.941,6.071-.317-.15-2.874Zm-6.875-.032a2.6,2.6,0,0,1-1.49-.332,2.951,2.951,0,0,1-1.056-1.073,3.571,3.571,0,0,1-.462-1.646,4.208,4.208,0,0,1,.263-1.863,2.549,2.549,0,0,1,.937-1.161,2.807,2.807,0,0,1,1.433-.453,3.245,3.245,0,0,1,1.57.295,3.4,3.4,0,0,1,.522.3l.274,5.215a4.984,4.984,0,0,1-.443.289A3.489,3.489,0,0,1,268.841,165.734Z" transform="translate(-157.859 -145.096)" fill="#00a9ff"/>
      <path id="Tracé_790" data-name="Tracé 790" d="M280.048,161.873a6.271,6.271,0,0,1-2.2.509,4.177,4.177,0,0,1-1.914-.31,3.065,3.065,0,0,1-1.352-1.14,3.248,3.248,0,0,1-.4-.879l9.02-.471-.045-.883a7.7,7.7,0,0,0-.951-3.468,5.729,5.729,0,0,0-2.346-2.267,6.731,6.731,0,0,0-3.554-.68,7.6,7.6,0,0,0-3.657,1.074,6.525,6.525,0,0,0-2.4,2.549,6.891,6.891,0,0,0-.725,3.639,6.972,6.972,0,0,0,1.14,3.654,6.159,6.159,0,0,0,2.752,2.23,8.93,8.93,0,0,0,3.977.611,9.463,9.463,0,0,0,3.364-.766,8.605,8.605,0,0,0,2.56-1.706l-1.488-2.8A6.728,6.728,0,0,1,280.048,161.873Zm-5.092-5.968a2.27,2.27,0,0,1,1.351-.481,2.32,2.32,0,0,1,1.223.231,1.827,1.827,0,0,1,.778.795,3.16,3.16,0,0,1,.314,1.309l-4.6.24a4.533,4.533,0,0,1,.167-.875A2.438,2.438,0,0,1,274.956,155.9Z" transform="translate(-150.229 -142.615)" fill="#00a9ff"/>
      <path id="Tracé_791" data-name="Tracé 791" d="M289.293,164.259a1.52,1.52,0,0,1-1.212-.329,2.036,2.036,0,0,1-.413-1.321l-.289-5.517,2.938-.154-.148-2.84-2.938.154-.265-5.059-4.822,1.071.223,4.243-1.6.085.148,2.84,1.632-.086.333,6.332a3.68,3.68,0,0,0,1.247,2.9,4.69,4.69,0,0,0,3.167.768l3.655-.192-.156-2.972Z" transform="translate(-140.336 -145.317)" fill="#00a9ff"/>
      <path id="Tracé_792" data-name="Tracé 792" d="M296.621,151.332a3.447,3.447,0,0,0-1.5.455,3.965,3.965,0,0,0-1.367,1.381,6.362,6.362,0,0,0-.577,1.172l-.133-2.527-6.528.342.148,2.84,1.7-.088.383,7.345-1.7.088.15,2.872,8.389-.44-.15-2.872-1.861.1-.235-4.5a1.807,1.807,0,0,1,.695-1.706,2.993,2.993,0,0,1,1.574-.575,5.589,5.589,0,0,1,1.5.118,4.821,4.821,0,0,1,1.217.428l.806-3.971a4.965,4.965,0,0,0-1.2-.379A5.7,5.7,0,0,0,296.621,151.332Z" transform="translate(-135.283 -143.447)" fill="#00a9ff"/>
      <path id="Tracé_793" data-name="Tracé 793" d="M300.442,161.41l-.534-10.184-6.561.344.149,2.84,1.7-.089.385,7.344-1.7.089.151,2.872,8.226-.431-.151-2.872Z" transform="translate(-129.285 -143.533)" fill="#00a9ff"/>
      <path id="Tracé_794" data-name="Tracé 794" d="M294.58,151.912a3.2,3.2,0,0,0,4.112-.216,2.5,2.5,0,0,0,.648-2,2.611,2.611,0,0,0-.87-1.935,2.841,2.841,0,0,0-2.079-.627,2.89,2.89,0,0,0-2.017.843,2.863,2.863,0,0,0,.207,3.933Z" transform="translate(-128.986 -147.13)" fill="#00a9ff"/>
      <path id="Tracé_795" data-name="Tracé 795" d="M314.182,156.2a5.375,5.375,0,0,0-2.145-2.228,5.726,5.726,0,0,0-3.161-.669,5.96,5.96,0,0,0-3.909,1.625l-.378-7.226-6.529.342.15,2.872,1.7-.09.7,13.45-1.7.088.15,2.872,6.169-.323.034-.954a7.72,7.72,0,0,0,1.093.584,6.489,6.489,0,0,0,2.97.483,5.684,5.684,0,0,0,5.164-3.577,8.4,8.4,0,0,0,.573-3.761A8.276,8.276,0,0,0,314.182,156.2Zm-4.741,6.336a2.578,2.578,0,0,1-1.995.988,3.337,3.337,0,0,1-1.568-.278,5.031,5.031,0,0,1-.488-.254l-.269-5.145a3.351,3.351,0,0,1,.5-.381,3.087,3.087,0,0,1,1.48-.47,2.66,2.66,0,0,1,2.068.725,3.437,3.437,0,0,1,.911,2.391A3.507,3.507,0,0,1,309.44,162.538Z" transform="translate(-125.146 -146.626)" fill="#00a9ff"/>
      <path id="Tracé_796" data-name="Tracé 796" d="M324.535,163.238l-.15-2.872-1.7.088-.533-10.183-6.268.329.15,2.838,1.435-.075.346,6.6a5.146,5.146,0,0,1-.49.312,3.671,3.671,0,0,1-1.595.477,1.577,1.577,0,0,1-1.319-.471,2.29,2.29,0,0,1-.518-1.461l-.423-8.1-6.5.34.148,2.84,1.632-.085.312,5.973a5.319,5.319,0,0,0,.61,2.258,3.843,3.843,0,0,0,1.572,1.587,4.672,4.672,0,0,0,2.528.49,6.889,6.889,0,0,0,2.968-.828,10.682,10.682,0,0,0,1.469-.965l.182,1.223Z" transform="translate(-117.314 -144.371)" fill="#00a9ff"/>
    </g>
  </g>
  <g id="Groupe_117" data-name="Groupe 117">
    <g id="Groupe_115" data-name="Groupe 115" transform="translate(81.928)">
      <path id="Tracé_797" data-name="Tracé 797" d="M246.743,133.486a38.717,38.717,0,0,0,17.109,2.667l.058,0a40.928,40.928,0,0,0,14.52-3.282,37.421,37.421,0,0,0,11.081-7.354l.321-.314-6.877-12.993-.571.5a28.16,28.16,0,0,1-7.4,4.6,26.224,26.224,0,0,1-9.146,2.1,17.231,17.231,0,0,1-7.867-1.275,12.5,12.5,0,0,1-5.483-4.64,12.124,12.124,0,0,1-1.369-2.789l38.156-2-.222-4.347a33.482,33.482,0,0,0-4.1-15.024,25.092,25.092,0,0,0-10.194-9.884,29.437,29.437,0,0,0-15.42-2.989A33.141,33.141,0,0,0,243.5,81.1a28.422,28.422,0,0,0-10.452,11.049,30.024,30.024,0,0,0-3.18,15.775,30.4,30.4,0,0,0,4.931,15.858A26.905,26.905,0,0,0,246.743,133.486ZM250.905,97.8A9.84,9.84,0,0,1,254,92.914a9.032,9.032,0,0,1,5.391-1.9h.015a9.278,9.278,0,0,1,4.871.919,7.217,7.217,0,0,1,3.052,3.126,12.49,12.49,0,0,1,1.221,4.724l-18.264.958A18.338,18.338,0,0,1,250.905,97.8Z" transform="translate(-190.978 -56.247)" fill="#ff1400"/>
      <path id="Tracé_798" data-name="Tracé 798" d="M313.694,105.158h0a17.5,17.5,0,0,0-7.215-5.838,43.745,43.745,0,0,0-11.244-3.175l-5.88-.813a18.1,18.1,0,0,1-4.9-1.621,3.05,3.05,0,0,1-1.653-2.726,3.272,3.272,0,0,1,1.493-3.094,8.673,8.673,0,0,1,4.48-1.321,21.592,21.592,0,0,1,5.025.355,20.516,20.516,0,0,1,4.732,1.446l.1.045.314,6.007,13.945-.716-.99-18.867-13.944.731.13,2.47a24.971,24.971,0,0,0-5.562-2.063,31.347,31.347,0,0,0-9.2-.811c-6.317.321-11.434,2.2-15.206,5.573-3.811,3.411-5.6,8-5.314,13.626.257,5.059,1.95,8.985,5.029,11.671,3.034,2.65,7.936,4.585,14.571,5.75l5.057.719a25.78,25.78,0,0,1,7.147,2,3.827,3.827,0,0,1,2.1,3.464A3.308,3.308,0,0,1,295.2,121a9.44,9.44,0,0,1-5.019,1.409l-.026,0a21.256,21.256,0,0,1-8.56-1.322,25.643,25.643,0,0,1-3.146-1.426l-.293-5.594-14.2.744.866,16.509.12,2.44.032.468,14.15-.742.051,0-.16-3.052a23.945,23.945,0,0,0,7.816,3.039,37.4,37.4,0,0,0,9.612.716l.045,0a26.6,26.6,0,0,0,10.482-2.6,17.626,17.626,0,0,0,7.309-6.5,17.278,17.278,0,0,0,2.3-10.213A18.453,18.453,0,0,0,313.694,105.158Z" transform="translate(-162.028 -57.621)" fill="#ff1400"/>
      <path id="Tracé_799" data-name="Tracé 799" d="M241.4,132.649l-3.51-66.975-28.748,1.507.7,13.322,7.189-.377,2.812,53.653-7.189.377.7,13.322,35.441-1.857-.7-13.322Z" transform="translate(-209.141 -65.674)" fill="#ff1400"/>
    </g>
    <g id="Groupe_116" data-name="Groupe 116" transform="translate(0 56.817)">
      <path id="Tracé_800" data-name="Tracé 800" d="M247.963,173.282l-3.355-63.99a10.421,10.421,0,0,0-4.6-8.166,26.614,26.614,0,0,0-10.964-4.29,62.5,62.5,0,0,0-14.152-.828l-.083.006a78.309,78.309,0,0,0-13.782,1.963,41.207,41.207,0,0,0-12.522,5.085,25.149,25.149,0,0,0-8.791,9.283c-2.126,3.853-3.06,8.663-2.773,14.3l.342,6.745-11.753.616.7,13.3,11.755-.61,1.58,30.162-11.753.616.7,13.3,52.089-2.729-.676-13.307-19.034,1L199.3,145.579l19.077-.99-.693-13.311-19.081,1-.466-9.212a9.009,9.009,0,0,1,1.822-6.3,13.162,13.162,0,0,1,5.793-3.948,29.824,29.824,0,0,1,8.849-1.676h.03c3.069-.154,5.293.252,6.614,1.2a4.947,4.947,0,0,1,2.066,4.018l3.019,57.555a21.645,21.645,0,0,0,1.334,6.514,10.288,10.288,0,0,0,3.947,5.04c1.831,1.232,4.414,1.779,7.679,1.608l18.549-.971-.674-13.3Z" transform="translate(-165.526 -95.921)" fill="#00a9ff"/>
      <path id="Tracé_801" data-name="Tracé 801" d="M338.612,138.744h0a17.5,17.5,0,0,0-7.215-5.84,43.706,43.706,0,0,0-11.244-3.173l-5.878-.813a18.16,18.16,0,0,1-4.9-1.621,3.053,3.053,0,0,1-1.651-2.727,3.264,3.264,0,0,1,1.491-3.092,8.681,8.681,0,0,1,4.482-1.322,21.583,21.583,0,0,1,5.023.355,20.486,20.486,0,0,1,4.732,1.446l.1.045.316,6.007,13.944-.716-.988-18.867-13.944.731.13,2.47a25.116,25.116,0,0,0-5.564-2.063,31.347,31.347,0,0,0-9.2-.811c-6.317.321-11.432,2.2-15.206,5.573-3.811,3.411-5.6,8-5.312,13.626.257,5.059,1.948,8.984,5.027,11.671,3.034,2.652,7.936,4.587,14.571,5.75l5.057.721a25.805,25.805,0,0,1,7.149,2,3.826,3.826,0,0,1,2.1,3.464,3.31,3.31,0,0,1-1.508,3.032A9.45,9.45,0,0,1,315.1,156l-.026,0a21.265,21.265,0,0,1-8.562-1.322,25.753,25.753,0,0,1-3.146-1.424l-.293-5.6-14.2.746.864,16.508.122,2.44.03.47,14.15-.742.053,0-.16-3.051a24.019,24.019,0,0,0,7.814,3.039,37.5,37.5,0,0,0,9.614.714l.045,0a26.607,26.607,0,0,0,10.482-2.6,17.631,17.631,0,0,0,7.307-6.5,17.292,17.292,0,0,0,2.307-10.213A18.457,18.457,0,0,0,338.612,138.744Z" transform="translate(-58.21 -84.936)" fill="#00a9ff"/>
      <path id="Tracé_802" data-name="Tracé 802" d="M347.867,153.632l-15.6-14.729,12.839-15.373,5.466-.287.417-.023-.7-13.3-30.864,1.617.7,13.307h0l5.586-.293-7.856,9.884-8.759-9.015,5.536-.289-.7-13.307-30.866,1.617.676,13.309,5.68-.3,14.415,14.041-13.977,16.183-10.341.543-2.279-43.472-28.674,1.5.68,13.3,6.832-.357,1.446,27.594q-.862.594-1.76,1.093a14.982,14.982,0,0,1-6.526,1.94h-.011a6.064,6.064,0,0,1-5.113-1.815,9.192,9.192,0,0,1-2.04-5.848l-1.89-35.474-28.565,1.5.695,13.284,0,.021,6.753-.355,1.292,24.8a23.154,23.154,0,0,0,2.613,9.832,17.054,17.054,0,0,0,6.913,7,20.462,20.462,0,0,0,11.041,2.173l.034,0h0a30.1,30.1,0,0,0,12.878-3.567,44.037,44.037,0,0,0,4.307-2.662l.208,3.96,58.552-3.069-.7-13.3-5.541.289,7.75-9.749,8.637,8.891L321.7,155l.7,13.3,31.787-1.666-.676-13.307Z" transform="translate(-125.035 -83.628)" fill="#00a9ff"/>
    </g>
  </g>
</svg>
