<svg xmlns="http://www.w3.org/2000/svg" width="102.203" height="126.172" viewBox="0 0 102.203 126.172">
  <g id="Groupe_241" data-name="Groupe 241" transform="translate(-1008.369 -635.394)">
    <path id="Tracé_985" data-name="Tracé 985" d="M1070.4,656.7c-16.48,0-30.738,21.6-37.6,58.609-2.015,10.864,5.986,20.946,16.58,20.946h42.038c10.595,0,18.595-10.083,16.581-20.946C1101.133,678.3,1086.875,656.7,1070.4,656.7Z" transform="translate(2.265 2.001)" fill="#00a9ff"/>
    <path id="Tracé_986" data-name="Tracé 986" d="M1090.293,735.65c-4-3.635-8.794-3.258-13.357,1.052-4.193,3.961-5.124,11.34-1.8,14.3,3.027,2.7,9.38,1.327,13.818-2.978C1093.517,743.592,1094.012,739.03,1090.293,735.65Z" transform="translate(6.082 9.183)" fill="#00a9ff"/>
    <path id="Tracé_987" data-name="Tracé 987" d="M1045.675,749.906c4,3.635,8.794,3.257,13.357-1.053,4.193-3.961,5.124-11.339,1.8-14.3-3.027-2.7-9.38-1.326-13.818,2.978C1042.451,741.963,1041.955,746.524,1045.675,749.906Z" transform="translate(3.271 9.183)" fill="#00a9ff"/>
    <path id="Tracé_988" data-name="Tracé 988" d="M1056.731,711.817a1.675,1.675,0,0,0,.035-.426c.059-.055.113-.12.164-.172a.276.276,0,0,1-.017-.031,1.171,1.171,0,0,0,.294-.264c-.446-.625-.206-1.221-.654-1.842a1.1,1.1,0,0,0,.118-1.011,1.138,1.138,0,0,0-.059-1.487,2.06,2.06,0,0,0-1.162.312c.031-.036.062-.072.1-.107a.24.24,0,0,0,.038.027,1.231,1.231,0,0,1,.238-.322.236.236,0,0,0,.037.027,1.2,1.2,0,0,1,.239-.321.342.342,0,0,0,.038.026c.188-.4.674-.546.6-1.07a1.023,1.023,0,0,0-1.249-.713,3.053,3.053,0,0,0-1.464.806l-11.689,12.433a3.578,3.578,0,0,1,.178,1.427.8.8,0,0,0,.619.228.463.463,0,0,0-.03.057.592.592,0,0,0-.276.294.532.532,0,0,0-.314.492c-.046.12.242.248.237.415-.006.319-.034.147.178.417.038.048-.039.193,0,.237.086.1.185.02.3.179.173.243.214.683.654.772a13.158,13.158,0,0,1-1.129,1.248c.1.273,0,.4,0,.714a2.218,2.218,0,0,1,1.129.653c.514,0,.76-.467,1.249-.653Z" transform="translate(3.19 6.481)" fill="#fff" fill-rule="evenodd"/>
    <path id="Tracé_989" data-name="Tracé 989" d="M1053.531,706.582a1.635,1.635,0,0,0,.036-.425c.059-.056.112-.12.164-.172-.008-.011-.011-.021-.019-.031a1.19,1.19,0,0,0,.294-.264c-.445-.625-.2-1.222-.654-1.843a1.1,1.1,0,0,0,.119-1.011,1.136,1.136,0,0,0-.059-1.486,2.059,2.059,0,0,0-1.162.312c.031-.037.062-.073.1-.107.013.008.022.021.037.026a1.224,1.224,0,0,1,.239-.321.219.219,0,0,0,.038.026,1.221,1.221,0,0,1,.238-.32.24.24,0,0,0,.038.027c.187-.4.674-.546.594-1.071a1.023,1.023,0,0,0-1.248-.713,3.06,3.06,0,0,0-1.465.807l-11.687,12.434a3.574,3.574,0,0,1,.177,1.426.81.81,0,0,0,.619.228.375.375,0,0,0-.028.057.6.6,0,0,0-.277.293.537.537,0,0,0-.314.492c-.046.121.242.249.239.416-.008.319-.034.146.178.417.037.047-.039.193,0,.237.087.1.185.02.3.178.172.243.213.684.654.773a13.466,13.466,0,0,1-1.129,1.248c.1.272,0,.4,0,.713a2.225,2.225,0,0,1,1.129.653c.513,0,.76-.466,1.248-.653Z" transform="translate(2.889 5.989)" fill="#ff1400" fill-rule="evenodd"/>
    <path id="Tracé_990" data-name="Tracé 990" d="M1078.827,711.817a1.675,1.675,0,0,1-.035-.426c-.059-.055-.113-.12-.164-.172a.276.276,0,0,0,.017-.031,1.169,1.169,0,0,1-.294-.264c.446-.625.206-1.221.654-1.842a1.1,1.1,0,0,1-.118-1.011,1.139,1.139,0,0,1,.058-1.487,2.062,2.062,0,0,1,1.163.312c-.031-.036-.062-.072-.1-.107a.24.24,0,0,1-.038.027,1.231,1.231,0,0,0-.239-.322.2.2,0,0,1-.038.027,1.161,1.161,0,0,0-.238-.321.329.329,0,0,1-.037.026c-.188-.4-.674-.546-.595-1.07a1.023,1.023,0,0,1,1.249-.713,3.053,3.053,0,0,1,1.464.806l11.689,12.433a3.578,3.578,0,0,0-.178,1.427.8.8,0,0,1-.619.228.463.463,0,0,1,.03.057.592.592,0,0,1,.276.294.532.532,0,0,1,.314.492c.046.12-.242.248-.237.415.006.319.033.147-.18.417-.037.048.041.193,0,.237-.085.1-.184.02-.3.179-.173.243-.214.683-.654.772a13.175,13.175,0,0,0,1.129,1.248c-.1.273,0,.4,0,.714a2.218,2.218,0,0,0-1.129.653c-.514,0-.761-.467-1.249-.653Z" transform="translate(6.573 6.481)" fill="#fff" fill-rule="evenodd"/>
    <path id="Tracé_991" data-name="Tracé 991" d="M1082.027,706.582a1.629,1.629,0,0,1-.036-.425c-.059-.056-.112-.12-.164-.172.008-.011.011-.021.019-.031a1.171,1.171,0,0,1-.294-.264c.445-.625.2-1.222.653-1.843a1.1,1.1,0,0,1-.118-1.011,1.136,1.136,0,0,1,.059-1.486,2.059,2.059,0,0,1,1.162.312c-.031-.037-.062-.073-.1-.107-.013.008-.022.021-.038.026a1.182,1.182,0,0,0-.238-.321.182.182,0,0,1-.037.026,1.224,1.224,0,0,0-.238-.32.252.252,0,0,1-.038.027c-.187-.4-.674-.546-.594-1.071a1.023,1.023,0,0,1,1.248-.713,3.052,3.052,0,0,1,1.464.807l11.689,12.434a3.573,3.573,0,0,0-.178,1.426.808.808,0,0,1-.619.228.3.3,0,0,1,.03.057.6.6,0,0,1,.277.293.534.534,0,0,1,.313.492c.047.121-.242.249-.237.416.006.319.034.146-.178.417-.037.047.039.193,0,.237-.086.1-.185.02-.3.178-.172.243-.214.684-.654.773a13.312,13.312,0,0,0,1.129,1.248c-.1.272,0,.4,0,.713a2.225,2.225,0,0,0-1.129.653c-.514,0-.76-.466-1.248-.653Z" transform="translate(6.873 5.989)" fill="#ff1400" fill-rule="evenodd"/>
    <path id="Tracé_992" data-name="Tracé 992" d="M1068.528,702.386c11.386.109,17.9-5.948,18.139-16.875.221-10.042-9.528-20.766-18.889-20.777-8.534-.011-15.853,9.151-15.919,19.925C1051.791,695.746,1057.939,702.283,1068.528,702.386Z" transform="translate(4.085 2.756)" fill="#fff"/>
    <path id="Tracé_993" data-name="Tracé 993" d="M1068.495,673.16a9.123,9.123,0,0,1,9,8.744c.1,4.864-3.732,8.607-8.845,8.648a9.032,9.032,0,0,1-9.062-8.574C1059.529,677.411,1063.839,673.146,1068.495,673.16Z" transform="translate(4.81 3.547)" fill="#00a9ff"/>
    <ellipse id="Ellipse_19" data-name="Ellipse 19" cx="19.214" cy="5.951" rx="19.214" ry="5.951" transform="matrix(0.852, -0.524, 0.524, 0.852, 1008.369, 688.447)" fill="#00a9ff"/>
    <path id="Tracé_994" data-name="Tracé 994" d="M1050.135,650.645a23.555,23.555,0,0,0-9.766-15.251,24.188,24.188,0,0,0-4.786,14.439,33.68,33.68,0,0,1,10.037,18.352h0A23.555,23.555,0,0,0,1050.135,650.645Z" transform="translate(2.556 0)" fill="#00a9ff"/>
    <path id="Tracé_995" data-name="Tracé 995" d="M1037.421,649.379c-.305-.287-.615-.57-.932-.848A33.68,33.68,0,0,0,1016,640.222a33.8,33.8,0,0,0,31.46,27.509h0A33.68,33.68,0,0,0,1037.421,649.379Z" transform="translate(0.716 0.453)" fill="#ff1400"/>
  </g>
</svg>
