<svg xmlns="http://www.w3.org/2000/svg" width="22.237" height="32.668" viewBox="0 0 22.237 32.668">
  <g id="Groupe_738" data-name="Groupe 738" transform="translate(-457.019 -4460.757)">
    <path id="Tracé_1729" data-name="Tracé 1729" d="M461.035,4475.129v-9.972a2.078,2.078,0,0,1,2.073-2.072h0a2.079,2.079,0,0,1,2.074,2.072v9.132" transform="translate(0.882 0.426)" fill="none" stroke="red" stroke-width="1.5"/>
    <path id="Tracé_1730" data-name="Tracé 1730" d="M464.3,4473.554v-9.973a2.081,2.081,0,0,1,2.074-2.074h0a2.081,2.081,0,0,1,2.074,2.074v9.973" transform="translate(1.764)" fill="none" stroke="red" stroke-width="1.5"/>
    <path id="Tracé_1731" data-name="Tracé 1731" d="M467.566,4474.584v-10.33a2.08,2.08,0,0,1,2.074-2.074h0a2.079,2.079,0,0,1,2.073,2.074v9.971" transform="translate(2.646 0.182)" fill="none" stroke="red" stroke-width="1.5"/>
    <path id="Tracé_1732" data-name="Tracé 1732" d="M466.064,4484.519c0-6.36-4.147-6.006-4.147-6.006v-4.992a2.08,2.08,0,0,0-2.074-2.074h0a2.08,2.08,0,0,0-2.074,2.074v7.667a10.369,10.369,0,1,0,20.737,0v-13.463a2.08,2.08,0,0,0-2.074-2.074h0a2.08,2.08,0,0,0-2.074,2.074v7.166" transform="translate(0 1.118)" fill="none" stroke="red" stroke-width="1.5"/>
  </g>
</svg>
